<svg width="1000" height="600" viewBox="0 0 1000 600" version="1.1" xmlns="http://www.w3.org/2000/svg">
    <rect x="50" y="50" width="600" height="200" rx="8" fill="#f8f9fa" stroke="#e9ecef"/>
    <rect x="70" y="70" width="200" height="20" rx="4" fill="#e9ecef"/>
    <path d="M70 120 L620 120" stroke="#e9ecef" stroke-dasharray="4"/>
    <path d="M70 170 L620 170" stroke="#e9ecef" stroke-dasharray="4"/>
    <rect x="50" y="270" width="290" height="280" rx="8" fill="#f8f9fa" stroke="#e9ecef"/>
    <rect x="360" y="270" width="290" height="280" rx="8" fill="#f8f9fa" stroke="#e9ecef"/>
    <rect x="670" y="50" width="280" height="300" rx="8" fill="#f8f9fa" stroke="#e9ecef"/>
    <rect x="670" y="370" width="280" height="180" rx="8" fill="#f8f9fa" stroke="#e9ecef"/>
    <path d="M70 150 Q170 120, 270 140 T470 130 T670 150" stroke="#e9ecef" fill="none" stroke-width="2"/>
    <path d="M70 320 L290 320 M70 370 L290 370" stroke="#e9ecef"/>
    <path d="M380 320 L620 320 M380 370 L620 370" stroke="#e9ecef"/>
</svg>